<mxfile host="app.diagrams.net" agent="Mozilla/5.0 (Windows NT 10.0; Win64; x64) AppleWebKit/537.36 (KHTML, like Gecko) Chrome/137.0.0.0 Safari/537.36" version="27.1.5">
  <diagram name="페이지-1" id="fgq08_hufYa3rvXydSeQ">
    <mxGraphModel dx="1153" dy="692" grid="1" gridSize="10" guides="1" tooltips="1" connect="1" arrows="1" fold="1" page="1" pageScale="1" pageWidth="827" pageHeight="1169" math="0" shadow="0">
      <root>
        <mxCell id="0" />
        <mxCell id="1" parent="0" />
        <mxCell id="T2utVZwpDm_sS1SthSCw-1" value="" style="swimlane;startSize=0;" vertex="1" parent="1">
          <mxGeometry x="40" y="30" width="1320" height="980" as="geometry" />
        </mxCell>
        <mxCell id="T2utVZwpDm_sS1SthSCw-2" value="Records" style="swimlane;fontStyle=0;childLayout=stackLayout;horizontal=1;startSize=30;horizontalStack=0;resizeParent=1;resizeParentMax=0;resizeLast=0;collapsible=1;marginBottom=0;whiteSpace=wrap;html=1;" vertex="1" parent="T2utVZwpDm_sS1SthSCw-1">
          <mxGeometry x="804" y="440" width="240" height="160" as="geometry" />
        </mxCell>
        <mxCell id="T2utVZwpDm_sS1SthSCw-3" value="- runningRecords:&amp;nbsp;&lt;span style=&quot;background-color: transparent; color: light-dark(rgb(0, 0, 0), rgb(255, 255, 255));&quot;&gt;&amp;nbsp;Array&amp;lt;RunningRecord&amp;gt;&lt;/span&gt;&lt;div&gt;&lt;div&gt;&lt;div&gt;- isModalOpen: boolean&lt;/div&gt;&lt;div&gt;- chartDate: Object&lt;/div&gt;&lt;div&gt;- chartOptions: Object&lt;/div&gt;&lt;/div&gt;&lt;/div&gt;&lt;div&gt;ㅡㅡㅡㅡㅡㅡㅡㅡㅡㅡㅡㅡㅡㅡㅡㅡㅡㅡㅡㅡ&lt;/div&gt;&lt;div&gt;&lt;span style=&quot;background-color: transparent; color: light-dark(rgb(0, 0, 0), rgb(255, 255, 255));&quot;&gt;+ setIsModalOpen(boolean):void&lt;/span&gt;&lt;/div&gt;&lt;div&gt;&lt;span style=&quot;background-color: transparent; color: light-dark(rgb(0, 0, 0), rgb(255, 255, 255));&quot;&gt;+ setRunningRecords(data): void&lt;/span&gt;&lt;/div&gt;" style="text;strokeColor=none;fillColor=none;align=left;verticalAlign=middle;spacingLeft=4;spacingRight=4;overflow=hidden;points=[[0,0.5],[1,0.5]];portConstraint=eastwest;rotatable=0;whiteSpace=wrap;html=1;" vertex="1" parent="T2utVZwpDm_sS1SthSCw-2">
          <mxGeometry y="30" width="240" height="130" as="geometry" />
        </mxCell>
        <mxCell id="T2utVZwpDm_sS1SthSCw-18" value="Workout" style="swimlane;fontStyle=0;childLayout=stackLayout;horizontal=1;startSize=30;horizontalStack=0;resizeParent=1;resizeParentMax=0;resizeLast=0;collapsible=1;marginBottom=0;whiteSpace=wrap;html=1;" vertex="1" parent="T2utVZwpDm_sS1SthSCw-1">
          <mxGeometry x="804" y="290" width="190" height="100" as="geometry" />
        </mxCell>
        <mxCell id="T2utVZwpDm_sS1SthSCw-19" value="- activeTab: string&lt;div&gt;- workoutPlans: object&lt;/div&gt;&lt;div&gt;ㅡㅡㅡㅡㅡㅡㅡㅡㅡㅡㅡㅡㅡㅡㅡㅡ&lt;/div&gt;&lt;div&gt;+ setActive(tabKey: string): void&lt;/div&gt;" style="text;strokeColor=none;fillColor=none;align=left;verticalAlign=middle;spacingLeft=4;spacingRight=4;overflow=hidden;points=[[0,0.5],[1,0.5]];portConstraint=eastwest;rotatable=0;whiteSpace=wrap;html=1;" vertex="1" parent="T2utVZwpDm_sS1SthSCw-18">
          <mxGeometry y="30" width="190" height="70" as="geometry" />
        </mxCell>
        <mxCell id="T2utVZwpDm_sS1SthSCw-14" value="Header" style="swimlane;fontStyle=0;childLayout=stackLayout;horizontal=1;startSize=30;horizontalStack=0;resizeParent=1;resizeParentMax=0;resizeLast=0;collapsible=1;marginBottom=0;whiteSpace=wrap;html=1;" vertex="1" parent="T2utVZwpDm_sS1SthSCw-1">
          <mxGeometry x="437" y="290" width="170" height="100" as="geometry" />
        </mxCell>
        <mxCell id="T2utVZwpDm_sS1SthSCw-15" value="- isDarkMode: boolean&lt;div&gt;ㅡㅡㅡㅡㅡㅡㅡㅡㅡㅡㅡㅡㅡㅡ&lt;/div&gt;&lt;div&gt;+ handleLogout(): void&lt;/div&gt;&lt;div&gt;+ handleModeToggle(): void&lt;/div&gt;" style="text;strokeColor=none;fillColor=none;align=left;verticalAlign=middle;spacingLeft=4;spacingRight=4;overflow=hidden;points=[[0,0.5],[1,0.5]];portConstraint=eastwest;rotatable=0;whiteSpace=wrap;html=1;" vertex="1" parent="T2utVZwpDm_sS1SthSCw-14">
          <mxGeometry y="30" width="170" height="70" as="geometry" />
        </mxCell>
        <mxCell id="T2utVZwpDm_sS1SthSCw-73" style="edgeStyle=orthogonalEdgeStyle;rounded=0;orthogonalLoop=1;jettySize=auto;html=1;entryX=0.5;entryY=0;entryDx=0;entryDy=0;" edge="1" parent="T2utVZwpDm_sS1SthSCw-1" source="T2utVZwpDm_sS1SthSCw-10" target="T2utVZwpDm_sS1SthSCw-26">
          <mxGeometry relative="1" as="geometry" />
        </mxCell>
        <mxCell id="T2utVZwpDm_sS1SthSCw-74" style="edgeStyle=orthogonalEdgeStyle;rounded=0;orthogonalLoop=1;jettySize=auto;html=1;entryX=0.5;entryY=0;entryDx=0;entryDy=0;" edge="1" parent="T2utVZwpDm_sS1SthSCw-1" source="T2utVZwpDm_sS1SthSCw-10" target="T2utVZwpDm_sS1SthSCw-32">
          <mxGeometry relative="1" as="geometry" />
        </mxCell>
        <mxCell id="T2utVZwpDm_sS1SthSCw-10" value="MainPage" style="swimlane;fontStyle=0;childLayout=stackLayout;horizontal=1;startSize=30;horizontalStack=0;resizeParent=1;resizeParentMax=0;resizeLast=0;collapsible=1;marginBottom=0;whiteSpace=wrap;html=1;" vertex="1" parent="T2utVZwpDm_sS1SthSCw-1">
          <mxGeometry x="540" y="480" width="140" height="80" as="geometry" />
        </mxCell>
        <mxCell id="T2utVZwpDm_sS1SthSCw-22" value="Profile" style="swimlane;fontStyle=0;childLayout=stackLayout;horizontal=1;startSize=30;horizontalStack=0;resizeParent=1;resizeParentMax=0;resizeLast=0;collapsible=1;marginBottom=0;whiteSpace=wrap;html=1;" vertex="1" parent="T2utVZwpDm_sS1SthSCw-1">
          <mxGeometry x="640" y="290" width="140" height="100" as="geometry" />
        </mxCell>
        <mxCell id="T2utVZwpDm_sS1SthSCw-23" value="-userName: string&lt;div&gt;-userProfilePic: string&lt;/div&gt;&lt;div&gt;ㅡㅡㅡㅡㅡㅡㅡㅡㅡㅡㅡ&lt;/div&gt;&lt;div&gt;+handleEditClick(): void&amp;nbsp;&lt;/div&gt;" style="text;strokeColor=none;fillColor=none;align=left;verticalAlign=middle;spacingLeft=4;spacingRight=4;overflow=hidden;points=[[0,0.5],[1,0.5]];portConstraint=eastwest;rotatable=0;whiteSpace=wrap;html=1;" vertex="1" parent="T2utVZwpDm_sS1SthSCw-22">
          <mxGeometry y="30" width="140" height="70" as="geometry" />
        </mxCell>
        <mxCell id="T2utVZwpDm_sS1SthSCw-6" value="HealthInfomation" style="swimlane;fontStyle=0;childLayout=stackLayout;horizontal=1;startSize=30;horizontalStack=0;resizeParent=1;resizeParentMax=0;resizeLast=0;collapsible=1;marginBottom=0;whiteSpace=wrap;html=1;" vertex="1" parent="T2utVZwpDm_sS1SthSCw-1">
          <mxGeometry x="804" y="650" width="206" height="100" as="geometry" />
        </mxCell>
        <mxCell id="T2utVZwpDm_sS1SthSCw-7" value="- selectedInjuryId: number | null&lt;div&gt;- injuries: Array&amp;lt;InjuryInfo&amp;gt;&lt;/div&gt;&lt;div&gt;ㅡㅡㅡㅡㅡㅡㅡㅡㅡㅡㅡㅡㅡ&lt;/div&gt;&lt;div&gt;+ handleInfuryClick(id: number): void&lt;/div&gt;" style="text;strokeColor=none;fillColor=none;align=left;verticalAlign=middle;spacingLeft=4;spacingRight=4;overflow=hidden;points=[[0,0.5],[1,0.5]];portConstraint=eastwest;rotatable=0;whiteSpace=wrap;html=1;" vertex="1" parent="T2utVZwpDm_sS1SthSCw-6">
          <mxGeometry y="30" width="206" height="70" as="geometry" />
        </mxCell>
        <mxCell id="T2utVZwpDm_sS1SthSCw-26" value="MarathonSchedule" style="swimlane;fontStyle=0;childLayout=stackLayout;horizontal=1;startSize=30;horizontalStack=0;resizeParent=1;resizeParentMax=0;resizeLast=0;collapsible=1;marginBottom=0;whiteSpace=wrap;html=1;" vertex="1" parent="T2utVZwpDm_sS1SthSCw-1">
          <mxGeometry x="437" y="680" width="180" height="60" as="geometry" />
        </mxCell>
        <mxCell id="T2utVZwpDm_sS1SthSCw-27" value="- schedules: Array&amp;lt;Schedule&amp;gt;" style="text;strokeColor=none;fillColor=none;align=left;verticalAlign=middle;spacingLeft=4;spacingRight=4;overflow=hidden;points=[[0,0.5],[1,0.5]];portConstraint=eastwest;rotatable=0;whiteSpace=wrap;html=1;" vertex="1" parent="T2utVZwpDm_sS1SthSCw-26">
          <mxGeometry y="30" width="180" height="30" as="geometry" />
        </mxCell>
        <mxCell id="T2utVZwpDm_sS1SthSCw-32" value="RecommendedCourse" style="swimlane;fontStyle=0;childLayout=stackLayout;horizontal=1;startSize=30;horizontalStack=0;resizeParent=1;resizeParentMax=0;resizeLast=0;collapsible=1;marginBottom=0;whiteSpace=wrap;html=1;" vertex="1" parent="T2utVZwpDm_sS1SthSCw-1">
          <mxGeometry x="630" y="680" width="160" height="70" as="geometry" />
        </mxCell>
        <mxCell id="T2utVZwpDm_sS1SthSCw-33" value="- courses: Array&amp;lt;Course&amp;gt;&lt;div&gt;- mapCenter: object&lt;/div&gt;" style="text;strokeColor=none;fillColor=none;align=left;verticalAlign=middle;spacingLeft=4;spacingRight=4;overflow=hidden;points=[[0,0.5],[1,0.5]];portConstraint=eastwest;rotatable=0;whiteSpace=wrap;html=1;" vertex="1" parent="T2utVZwpDm_sS1SthSCw-32">
          <mxGeometry y="30" width="160" height="40" as="geometry" />
        </mxCell>
        <mxCell id="T2utVZwpDm_sS1SthSCw-69" style="edgeStyle=orthogonalEdgeStyle;rounded=0;orthogonalLoop=1;jettySize=auto;html=1;entryX=0;entryY=0.5;entryDx=0;entryDy=0;" edge="1" parent="T2utVZwpDm_sS1SthSCw-1" source="T2utVZwpDm_sS1SthSCw-40" target="T2utVZwpDm_sS1SthSCw-10">
          <mxGeometry relative="1" as="geometry" />
        </mxCell>
        <mxCell id="T2utVZwpDm_sS1SthSCw-40" value="LoginPage" style="swimlane;fontStyle=0;childLayout=stackLayout;horizontal=1;startSize=30;horizontalStack=0;resizeParent=1;resizeParentMax=0;resizeLast=0;collapsible=1;marginBottom=0;whiteSpace=wrap;html=1;" vertex="1" parent="T2utVZwpDm_sS1SthSCw-1">
          <mxGeometry x="220" y="450" width="200" height="140" as="geometry" />
        </mxCell>
        <mxCell id="T2utVZwpDm_sS1SthSCw-41" value="- email: string&lt;div&gt;- password: string&lt;/div&gt;&lt;div&gt;ㅡㅡㅡㅡㅡㅡㅡㅡㅡㅡㅡㅡㅡㅡㅡㅡㅡ&lt;/div&gt;&lt;div&gt;+ handleLogin(e: Event): void&lt;/div&gt;&lt;div&gt;+ setEmail(value: string): void&lt;/div&gt;&lt;div&gt;+ setPassword(value: string): void&lt;/div&gt;" style="text;strokeColor=none;fillColor=none;align=left;verticalAlign=middle;spacingLeft=4;spacingRight=4;overflow=hidden;points=[[0,0.5],[1,0.5]];portConstraint=eastwest;rotatable=0;whiteSpace=wrap;html=1;" vertex="1" parent="T2utVZwpDm_sS1SthSCw-40">
          <mxGeometry y="30" width="200" height="110" as="geometry" />
        </mxCell>
        <mxCell id="T2utVZwpDm_sS1SthSCw-44" value="HomePage" style="swimlane;fontStyle=0;childLayout=stackLayout;horizontal=1;startSize=30;horizontalStack=0;resizeParent=1;resizeParentMax=0;resizeLast=0;collapsible=1;marginBottom=0;whiteSpace=wrap;html=1;" vertex="1" parent="T2utVZwpDm_sS1SthSCw-1">
          <mxGeometry x="220" y="290" width="140" height="80" as="geometry" />
        </mxCell>
        <mxCell id="T2utVZwpDm_sS1SthSCw-70" style="edgeStyle=orthogonalEdgeStyle;rounded=0;orthogonalLoop=1;jettySize=auto;html=1;entryX=0;entryY=0.5;entryDx=0;entryDy=0;" edge="1" parent="T2utVZwpDm_sS1SthSCw-1" source="T2utVZwpDm_sS1SthSCw-48" target="T2utVZwpDm_sS1SthSCw-44">
          <mxGeometry relative="1" as="geometry" />
        </mxCell>
        <mxCell id="T2utVZwpDm_sS1SthSCw-72" style="edgeStyle=orthogonalEdgeStyle;rounded=0;orthogonalLoop=1;jettySize=auto;html=1;entryX=0;entryY=0.5;entryDx=0;entryDy=0;" edge="1" parent="T2utVZwpDm_sS1SthSCw-1" source="T2utVZwpDm_sS1SthSCw-48" target="T2utVZwpDm_sS1SthSCw-37">
          <mxGeometry relative="1" as="geometry" />
        </mxCell>
        <mxCell id="T2utVZwpDm_sS1SthSCw-48" value="App" style="swimlane;fontStyle=0;childLayout=stackLayout;horizontal=1;startSize=30;horizontalStack=0;resizeParent=1;resizeParentMax=0;resizeLast=0;collapsible=1;marginBottom=0;whiteSpace=wrap;html=1;" vertex="1" parent="T2utVZwpDm_sS1SthSCw-1">
          <mxGeometry x="20" y="475" width="140" height="95" as="geometry" />
        </mxCell>
        <mxCell id="T2utVZwpDm_sS1SthSCw-36" value="&amp;nbsp;SignupPage" style="swimlane;fontStyle=0;childLayout=stackLayout;horizontal=1;startSize=30;horizontalStack=0;resizeParent=1;resizeParentMax=0;resizeLast=0;collapsible=1;marginBottom=0;whiteSpace=wrap;html=1;" vertex="1" parent="T2utVZwpDm_sS1SthSCw-1">
          <mxGeometry x="230" y="680" width="180" height="150" as="geometry" />
        </mxCell>
        <mxCell id="T2utVZwpDm_sS1SthSCw-37" value="- email: string&lt;div&gt;- username: string&lt;/div&gt;&lt;div&gt;- password: string&lt;/div&gt;&lt;div&gt;- confirmPassword: string&lt;/div&gt;&lt;div&gt;ㅡㅡㅡㅡㅡㅡㅡㅡㅡㅡㅡ&lt;/div&gt;&lt;div&gt;+ handleSignup(e: Event): void&lt;/div&gt;&lt;div&gt;+ setEmail(value: string): void&lt;/div&gt;" style="text;strokeColor=none;fillColor=none;align=left;verticalAlign=middle;spacingLeft=4;spacingRight=4;overflow=hidden;points=[[0,0.5],[1,0.5]];portConstraint=eastwest;rotatable=0;whiteSpace=wrap;html=1;" vertex="1" parent="T2utVZwpDm_sS1SthSCw-36">
          <mxGeometry y="30" width="180" height="120" as="geometry" />
        </mxCell>
        <mxCell id="T2utVZwpDm_sS1SthSCw-65" style="edgeStyle=orthogonalEdgeStyle;rounded=0;orthogonalLoop=1;jettySize=auto;html=1;entryX=0.007;entryY=0.391;entryDx=0;entryDy=0;entryPerimeter=0;" edge="1" parent="T2utVZwpDm_sS1SthSCw-1" source="T2utVZwpDm_sS1SthSCw-10" target="T2utVZwpDm_sS1SthSCw-3">
          <mxGeometry relative="1" as="geometry" />
        </mxCell>
        <mxCell id="T2utVZwpDm_sS1SthSCw-66" style="edgeStyle=orthogonalEdgeStyle;rounded=0;orthogonalLoop=1;jettySize=auto;html=1;entryX=0.521;entryY=0.989;entryDx=0;entryDy=0;entryPerimeter=0;" edge="1" parent="T2utVZwpDm_sS1SthSCw-1" source="T2utVZwpDm_sS1SthSCw-10" target="T2utVZwpDm_sS1SthSCw-23">
          <mxGeometry relative="1" as="geometry" />
        </mxCell>
        <mxCell id="T2utVZwpDm_sS1SthSCw-68" style="edgeStyle=orthogonalEdgeStyle;rounded=0;orthogonalLoop=1;jettySize=auto;html=1;entryX=0.481;entryY=1.009;entryDx=0;entryDy=0;entryPerimeter=0;" edge="1" parent="T2utVZwpDm_sS1SthSCw-1" source="T2utVZwpDm_sS1SthSCw-10" target="T2utVZwpDm_sS1SthSCw-15">
          <mxGeometry relative="1" as="geometry" />
        </mxCell>
        <mxCell id="T2utVZwpDm_sS1SthSCw-71" style="edgeStyle=orthogonalEdgeStyle;rounded=0;orthogonalLoop=1;jettySize=auto;html=1;entryX=0.01;entryY=0.388;entryDx=0;entryDy=0;entryPerimeter=0;" edge="1" parent="T2utVZwpDm_sS1SthSCw-1" source="T2utVZwpDm_sS1SthSCw-48" target="T2utVZwpDm_sS1SthSCw-41">
          <mxGeometry relative="1" as="geometry" />
        </mxCell>
        <mxCell id="T2utVZwpDm_sS1SthSCw-80" style="edgeStyle=orthogonalEdgeStyle;rounded=0;orthogonalLoop=1;jettySize=auto;html=1;entryX=0.531;entryY=0.996;entryDx=0;entryDy=0;entryPerimeter=0;" edge="1" parent="T2utVZwpDm_sS1SthSCw-1" source="T2utVZwpDm_sS1SthSCw-10" target="T2utVZwpDm_sS1SthSCw-19">
          <mxGeometry relative="1" as="geometry" />
        </mxCell>
        <mxCell id="T2utVZwpDm_sS1SthSCw-77" value="" style="endArrow=classicThin;html=1;rounded=0;edgeStyle=orthogonalEdgeStyle;entryX=0.5;entryY=0;entryDx=0;entryDy=0;endFill=1;" edge="1" parent="1" target="T2utVZwpDm_sS1SthSCw-6">
          <mxGeometry relative="1" as="geometry">
            <mxPoint x="750" y="650" as="sourcePoint" />
            <mxPoint x="840" y="650" as="targetPoint" />
          </mxGeometry>
        </mxCell>
      </root>
    </mxGraphModel>
  </diagram>
</mxfile>
